#!OML:ASF \\sashay\E\Suitcase\Project 1\Capture day 1\Session 1\Male1.ASF
:FULLY-SPECIFIED
:DEGREES
261
root 1.04708 17.3345 -30.2337 7.99071 -6.22749 -5.32123
lowerback 0.614241 1.39186 2.50118
upperback -0.126321 1.88697 2.76753
thorax -0.486439 0.939536 1.41534
lowerneck -16.8513 0.0326548 -1.44723
upperneck 20.633 1.56209 -4.74637
head 9.32863 0.0764304 -1.19402
rclavicle -6.4605e-016 -2.10712e-014
rhumerus -24.5862 -21.888 -73.5736
rradius 21.796
rwrist -6.95469
rhand -16.6421 30.8283
rfingers 7.12502
rthumb 9.58062 1.06611
lclavicle -6.4605e-016 -2.10712e-014
lhumerus -36.3574 7.82245 84.2092
lradius 27.5056
lwrist -10.0298
lhand -1.80061 41.3157
lfingers 7.12502
lthumb 23.8646 69.8531
rfemur 17.4937 6.88108 28.5115
rtibia 9.54166e-015
rfoot -7.2838 -5.17434
rtoes -13.478
lfemur -33.6602 -4.10148 -12.0972
ltibia 24.0737
lfoot -10.9797 2.87277
ltoes 1.14372
262
root 1.07477 17.3661 -30.1248 8.08539 -6.41238 -4.77592
lowerback 0.579095 1.39357 2.03823
upperback -0.0647603 1.88169 2.59162
thorax -0.412478 0.93859 1.49541
lowerneck -17.0175 0.0392698 -1.44589
upperneck 20.6468 1.56796 -4.70808
head 9.36379 0.0809816 -1.181
rclavicle 4.67144e-015 2.22639e-014
rhumerus -24.6181 -22.2557 -73.4128
rradius 21.5676
rwrist -6.52828
rhand -16.8538 30.9176
rfingers 7.12502
rthumb 9.37642 1.14619
lclavicle 4.67144e-015 2.22639e-014
lhumerus -36.1062 8.15817 84.0829
lradius 27.215
lwrist -10.34
lhand -1.62936 40.6359
lfingers 7.12502
lthumb 24.0288 69.1517
rfemur 17.6536 6.88334 27.7144
rtibia -1.59028e-014
rfoot -6.83615 -5.16093
rtoes -13.0723
lfemur -33.3036 -3.78839 -12.9345
ltibia 24.091
lfoot -10.5283 2.41339
ltoes 3.09194
263
root 1.09903 17.3686 -30.0171 8.20103 -6.27374 -4.41132
lowerback 0.611758 1.26484 1.88636
upperback -0.0926146 1.7103 2.38226
thorax -0.455357 0.852844 1.36587
lowerneck -16.9631 0.178999 -1.56454
upperneck 20.4444 1.72119 -4.44789
head 9.28214 0.177451 -1.0495
rclavicle -3.03147e-015 -1.82882e-014
rhumerus -25.2948 -21.8174 -73.5747
rradius 22.1896
rwrist -6.88411
rhand -16.6993 30.7619
rfingers 7.12502
rthumb 9.52552 0.997217
lclavicle -3.03147e-015 -1.82882e-014
lhumerus -36.0381 8.26464 83.8527
lradius 27.2231
lwrist -10.1446
lhand -1.67668 41.2973
lfingers 7.12502
lthumb 23.9835 69.8191
rfemur 17.8632 6.586 27.1768
rtibia -6.36111e-015
rfoot -6.33851 -5.12948
rtoes -13.9669
lfemur -33.2139 -3.29571 -13.6418
ltibia 24.2374
lfoot -9.84696 1.45954
ltoes 8.86864
264
root 1.12907 17.3648 -29.9029 7.96994 -6.22383 -3.97547
lowerback 0.950943 1.27936 1.59917
upperback -0.112071 1.73817 2.21705
thorax -0.669031 0.866745 1.34812
lowerneck -16.855 0.0391761 -1.83029
upperneck 20.3842 1.50869 -4.09134
head 9.23224 0.100351 -0.909033
rclavicle 2.17669e-014 1.59028e-014
rhumerus -25.8107 -22.0305 -73.2089
rradius 22.0027
rwrist -6.84995
rhand -16.605 31.2176
rfingers 7.12502
rthumb 9.61648 1.45706
lclavicle 2.17669e-014 1.59028e-014
lhumerus -36.0528 7.9036 83.923
lradius 27.1384
lwrist -10.2635
lhand -1.82818 41.0108
lfingers 7.12502
lthumb 23.8382 69.5517
rfemur 18.3894 6.33542 26.5383
rtibia 3.18055e-015
rfoot -5.69292 -5.00363
rtoes -14.7861
lfemur -32.7914 -3.50234 -14.2978
ltibia 24.4328
lfoot -8.81915 1.83692
ltoes 5.29675
265
root 1.15092 17.3745 -29.7934 8.03812 -6.09907 -3.97083
lowerback 0.88303 1.20675 1.68975
upperback 0.0177276 1.63608 2.18073
thorax -0.493178 0.815983 1.26509
lowerneck -16.9967 0.171652 -1.58301
upperneck 20.3629 1.72447 -4.49505
head 9.2607 0.173678 -1.06162
rclavicle -9.0447e-015 -1.49089e-014
rhumerus -26.0378 -22.2893 -73.1832
rradius 22.2933
rwrist -6.74917
rhand -16.8777 30.5751
rfingers 7.12502
rthumb 9.35333 0.80261
lclavicle -9.0447e-015 -1.49089e-014
lhumerus -35.968 8.07334 83.8216
lradius 27.4862
lwrist -10.4138
lhand -1.35948 41.1918
lfingers 7.12502
lthumb 24.2876 69.6733
rfemur 18.5362 6.08363 26.3842
rtibia -4.77083e-014
rfoot -4.97831 -4.84221
rtoes -15.8511
lfemur -32.6606 -3.16426 -14.5267
ltibia 24.6126
lfoot -7.74113 1.50325
ltoes 7.16496
